<?xml version="1.0" encoding="utf-8"?>
<!-- Generator: Adobe Illustrator 19.2.1, SVG Export Plug-In . SVG Version: 6.00 Build 0)  -->
<svg version="1.1" id="Layer_1" xmlns="http://www.w3.org/2000/svg" xmlns:xlink="http://www.w3.org/1999/xlink" x="0px" y="0px"
	 viewBox="0 0 508.3 79.3" style="enable-background:new 0 0 508.3 79.3;" xml:space="preserve">
<style type="text/css">
	.st0{fill:#E8445F;}
	.st1{fill:#FFFFFF;}
	.st2{font-family:'Raleway-Regular';}
	.st3{font-size:28.0649px;}
	.st4{font-family:'Raleway-Bold';}
</style>
<rect x="0.2" y="-0.1" class="st0" width="508.2" height="80.6"/>
<g>
	<path class="st1" d="M273.7,33.1c-2.4,2.9-5.3,5.2-8.8,6.8c2.5,3.1,5.4,5.8,8.8,7.9c3.3-2.1,6.3-4.8,8.8-7.9
		C279.1,38.4,276.1,36,273.7,33.1z"/>
	<path class="st1" d="M268.3,20.1c-9.1,2.2-16.1,9.6-17.5,18.9c1.2,0.2,2.5,0.3,3.8,0.3c7.1,0,13.4-3.4,17.4-8.7
		C270,27.5,268.7,24,268.3,20.1z"/>
	<path class="st1" d="M262.2,41c-2.4,0.8-4.9,1.2-7.6,1.2c-0.2,0-0.4,0-0.5,0c0,0.2,0,0.3,0,0.5c0,4,1.2,7.7,3.2,10.8
		c4.9-0.4,9.6-1.8,13.7-4C267.6,47.1,264.7,44.3,262.2,41z"/>
	<g>
		<path class="st1" d="M292.9,42.2c-2.7,0-5.2-0.4-7.6-1.2c-2.5,3.2-5.4,6.1-8.8,8.4c4.2,2.2,8.8,3.6,13.7,4c2-3.1,3.2-6.8,3.2-10.8
			c0-0.2,0-0.3,0-0.5C293.2,42.2,293.1,42.2,292.9,42.2z"/>
	</g>
	<g>
		<path class="st1" d="M273.7,51.2c-3.4,2-7.2,3.5-11.2,4.3c2.7,5.3,6.6,10,11.2,13.7c4.7-3.7,8.5-8.4,11.2-13.7
			C280.9,54.7,277.2,53.2,273.7,51.2z"/>
	</g>
	<g>
		<path class="st1" d="M296.7,39c-1.8-11.1-11.3-19.6-22.9-19.6c-0.9,0-1.7,0.1-2.6,0.1c1,11.1,10.4,19.8,21.7,19.8
			C294.2,39.4,295.4,39.3,296.7,39z"/>
		<path class="st1" d="M271.2,19.6c0,0-0.3-3.3,0.5-14.6c0.1,0.1,4,0.1,4,0.1s-2.6,14.1,1.1,14.6"/>
	</g>
</g>
<g>
	<g>
		<text transform="matrix(1 0 0 1 5.8291 49.4043)"><tspan x="0" y="0" class="st1 st2 st3">VigoTech Alliance           </tspan><tspan x="314.3" y="0" class="st1 st4 st3">haciendo piña</tspan></text>
	</g>
</g>
</svg>
