<?xml version="1.0" encoding="utf-8"?>
<!-- Generator: Adobe Illustrator 19.2.1, SVG Export Plug-In . SVG Version: 6.00 Build 0)  -->
<svg version="1.1" id="Layer_1" xmlns="http://www.w3.org/2000/svg" xmlns:xlink="http://www.w3.org/1999/xlink" x="0px" y="0px"
	 viewBox="0 0 130.4 178.4" style="enable-background:new 0 0 130.4 178.4;" xml:space="preserve">
<style type="text/css">
	.st0{fill:#E8445F;}
	.st1{fill:#FFFFFF;}
	.st2{fill:#C8445F;}
</style>
<rect class="st0" width="130.4" height="178.4"/>
<g>
	<path class="st1" d="M13,97.2c-1.3,0-2.5,0-3.8-0.1c-3.7-0.2-6.1-3.9-5.1-7.5C9.5,69.9,24.3,54,43.3,47.1c3.4-1.2,7.1,0.9,7.8,4.4
		c1.4,6.7,3.8,13.1,7,18.9c1.2,2.1,0.8,4.8-0.8,6.7C46.5,89.4,30.6,97.2,13,97.2z M116.6,97.2c1.6,0,3.1-0.1,4.6-0.2
		c3.1-0.2,5.3-3.3,4.5-6.3C119.5,66,98.5,47.1,72.6,43.8l0.5,0c-7.6-1-5.4-23.1-3.9-33.8c0.4-3.1-1.9-5.8-5-5.8c-0.1,0-0.1,0-0.2,0
		c-2.7,0-5,2.1-5.1,4.8c-1.8,26.8-1,34.7-1,34.7C60.6,73.7,85.9,97.2,116.6,97.2z M61.5,84C57,88.8,51.8,93,46,96.2
		c-2.5,1.5-3.1,4.8-1.1,7c5.2,5.8,11,10.9,17.4,15.3c1.5,1.1,3.6,1.1,5.1,0c6.4-4.4,12.2-9.5,17.4-15.3c2-2.2,1.4-5.6-1.1-7
		c-5.8-3.3-11-7.4-15.5-12.2C66.3,82.1,63.3,82.1,61.5,84z M35.7,104.4c-1.3-1.6-3.4-2.3-5.4-1.7c-5.5,1.5-11.3,2.3-17.3,2.3
		c-0.5,0-1,0-1.5,0c0,0.4,0,0.8,0,1.2c0,9.5,2.5,18.4,6.9,26.2c1,1.8,3,2.9,5,2.7c9.2-1.1,18-3.4,26.3-6.8c3.5-1.5,4.1-6.2,1.1-8.6
		C45.2,115.1,40.2,110,35.7,104.4z M116.6,105c-6.4,0-12.5-0.9-18.4-2.6c-1.3-0.4-2.7,0.1-3.6,1.1c-5.3,6.6-11.3,12.6-18,17.8
		c-2,1.6-1.6,4.7,0.7,5.8c9.3,4.2,19.4,7,29.9,8.1c1.3,0.1,2.6-0.5,3.3-1.6c4.8-8,7.5-17.3,7.5-27.3c0-0.4,0-0.8,0-1.2
		C117.6,105,117.1,105,116.6,105z M37.9,147.5c6.2,10.5,14.1,19.8,23.3,27.7c2,1.7,5,1.7,7,0c9.2-7.9,17.1-17.3,23.3-27.8
		c1.8-3.1,0.2-7.1-3.2-8.1c-7.3-2.1-14.3-5-20.9-8.5c-1.7-0.9-3.6-0.9-5.3,0c-6.6,3.6-13.7,6.5-21,8.6
		C37.7,140.4,36,144.4,37.9,147.5z"/>
</g>
</svg>
